<svg width="168" height="224" viewBox="0 0 168 224" fill="none" xmlns="http://www.w3.org/2000/svg">
<path d="M111.215 96.3013V159.127L56.785 190.552V127.702L111.215 96.3013Z" fill="#03C75A" stroke="#FAFAFA" stroke-width="3" stroke-miterlimit="10" stroke-linejoin="round"/>
<path d="M111.215 96.2769V96.303L56.7845 127.703L2.35431 96.303V96.2769L56.7845 64.852L111.215 96.2769Z" fill="#03C75A" stroke="#FAFAFA" stroke-width="3" stroke-miterlimit="10" stroke-linejoin="round"/>
<path d="M56.7845 127.702V190.552L2.35431 159.127V96.3013L56.7845 127.702Z" fill="#03C75A" stroke="#FAFAFA" stroke-width="3" stroke-miterlimit="10" stroke-linejoin="round"/>
<path d="M165.646 127.75V190.575L111.216 222V159.15L165.646 127.75Z" fill="#03C75A" stroke="#FAFAFA" stroke-width="3" stroke-miterlimit="10" stroke-linejoin="round"/>
<path d="M165.645 127.726V127.752L111.215 159.153L56.785 127.752V127.726L111.215 96.3013L165.645 127.726Z" fill="#03C75A" stroke="#FAFAFA" stroke-width="3" stroke-miterlimit="10" stroke-linejoin="round"/>
<path d="M111.215 159.15V222L56.785 190.575V127.75L111.215 159.15Z" fill="#03C75A" stroke="#FAFAFA" stroke-width="3" stroke-miterlimit="10" stroke-linejoin="round"/>
<path d="M111.215 33.4526V96.2779L56.785 127.703V64.8531L111.215 33.4526Z" fill="#03C75A" stroke="#FAFAFA" stroke-width="3" stroke-miterlimit="10" stroke-linejoin="round"/>
<path d="M111.215 33.4249V33.451L56.7845 64.8514L2.35431 33.451V33.4249L56.7845 2.00001L111.215 33.4249Z" fill="#03C75A" stroke="#FAFAFA" stroke-width="3" stroke-miterlimit="10" stroke-linejoin="round"/>
<path d="M56.7845 64.8531V127.703L2.35431 96.2779V33.4526L56.7845 64.8531Z" fill="#03C75A" stroke="#FAFAFA" stroke-width="3" stroke-miterlimit="10" stroke-linejoin="round"/>
</svg>
